<svg xmlns="http://www.w3.org/2000/svg" width="1290" height="1804.257" viewBox="0 0 1290 1804.257">
  <g id="Group_88756" data-name="Group 88756" transform="translate(-16894 -405.202)">
    <path id="Path_51328" data-name="Path 51328" d="M63.46,1872.079h946.755c117.772,0,213.251-95.474,213.251-213.25h0c0-117.772-95.474-213.25-213.251-213.25H348.135c-117.772,0-213.251-95.474-213.251-213.25h0c0-117.772,95.474-213.251,213.251-213.251h662.838c117.772,0,213.251-95.474,213.251-213.25h0c0-117.772-95.474-213.251-213.251-213.251H348.135c-117.772,0-213.251-95.474-213.251-213.251v-.665c0-117.772,95.474-213.251,213.251-213.251h936.638" transform="translate(16868.607 287.92)" fill="none" stroke="#ffc81a" stroke-linecap="round" stroke-miterlimit="10" stroke-width="7" stroke-dasharray="10 41.018"/>
    <path id="Path_54466" data-name="Path 54466" d="M98.524,87.6,68.27,50,98.524,12.4a6.453,6.453,0,0,0-7.812-9.863L3.661,44.18a6.441,6.441,0,0,0,0,11.621l87.051,41.66A6.453,6.453,0,0,0,98.524,87.6Z" transform="translate(17644.002 403.331)" fill="#fff"/>
    <path id="Path_54467" data-name="Path 54467" d="M1.465,87.6,31.719,50,1.465,12.4A6.453,6.453,0,0,1,9.277,2.539L96.328,44.18a6.441,6.441,0,0,1,0,11.621L9.277,97.461A6.453,6.453,0,0,1,1.465,87.6Z" transform="translate(17474 831.331)" fill="#fff"/>
    <path id="Path_54468" data-name="Path 54468" d="M1.465,87.6,31.719,50,1.465,12.4A6.453,6.453,0,0,1,9.277,2.539L96.328,44.18a6.441,6.441,0,0,1,0,11.621L9.277,97.461A6.453,6.453,0,0,1,1.465,87.6Z" transform="translate(17512 1685.331)" fill="#fff"/>
    <path id="Path_54469" data-name="Path 54469" d="M98.524,87.6,68.27,50,98.524,12.4a6.453,6.453,0,0,0-7.812-9.863L3.661,44.18a6.441,6.441,0,0,0,0,11.621l87.051,41.66A6.453,6.453,0,0,0,98.524,87.6Z" transform="translate(17335.006 2111.331)" fill="#fff"/>
    <path id="Path_54470" data-name="Path 54470" d="M98.524,87.6,68.27,50,98.524,12.4a6.453,6.453,0,0,0-7.812-9.863L3.661,44.18a6.441,6.441,0,0,0,0,11.621l87.051,41.66A6.453,6.453,0,0,0,98.524,87.6Z" transform="translate(17401 1256.331)" fill="#fff"/>
    <circle id="Ellipse_140" data-name="Ellipse 140" cx="14" cy="14" r="14" transform="translate(18156 439)" fill="#ef4d8b"/>
    <circle id="Ellipse_141" data-name="Ellipse 141" cx="14" cy="14" r="14" transform="translate(16894 2146)" fill="#ef4d8b"/>
  </g>
</svg>
