<svg xmlns="http://www.w3.org/2000/svg" width="21.345" height="24.333" viewBox="0 0 21.345 24.333">
  <path id="Path_28021" data-name="Path 28021" d="M1.5,2.845a.764.764,0,0,1-.226.764l.136.51a2.111,2.111,0,0,0,.246.07,3.425,3.425,0,0,0,1.085.05A8.787,8.787,0,0,0,7.183,2.128,8.531,8.531,0,0,1,12.116,0a4.34,4.34,0,0,1,1.377.166,2.878,2.878,0,0,1,.372.137c.043.019.078.037.1.049L14,.371l.006,0,0,0,.005,0h0s0,0-.18.3l.181-.3.121.073,2.657,9.912-.647-.253h0l0,0-.022-.007-.1-.032c-.087-.026-.217-.062-.384-.1a5.631,5.631,0,0,0-1.387-.107,6.348,6.348,0,0,0-4.166,1.894A6.909,6.909,0,0,1,5.52,13.832,6.017,6.017,0,0,1,4,13.7L3.975,13.7l1.81,6.754a.351.351,0,1,1-.679.181L.594,3.787A.763.763,0,1,1,1.5,2.846ZM10.516,1.02a10.005,10.005,0,0,0-2.9,1.66l-.182.141.591,2.2a8.978,8.978,0,0,1,3.039-1.657l.071-.028a16.324,16.324,0,0,0,.852,3.18A9.583,9.583,0,0,0,8.9,8.275l.778,2.9A7.368,7.368,0,0,1,12.76,9.4l-.772-2.881a4.131,4.131,0,0,1,3.023-.075l-.912-3.4a5.684,5.684,0,0,0-2.964.3ZM6.594,12.976l-.788-2.943a3.284,3.284,0,0,1-2.657.39l.671,2.5c.081.026.192.057.329.087a5.288,5.288,0,0,0,1.343.116,5.514,5.514,0,0,0,1.1-.155ZM2.284,7.194a6.116,6.116,0,0,0,2.69-.268L4.346,4.582A6.43,6.43,0,0,1,2.81,4.94a4.32,4.32,0,0,1-1.138-.031Zm6.592,1.12L8,5.051,4.993,6.872l.846,3.157A4.888,4.888,0,0,0,8.876,8.314Z" transform="translate(5.054 0) rotate(14)" fill="#ffc81a" fill-rule="evenodd"/>
</svg>
