<svg xmlns="http://www.w3.org/2000/svg" width="22.281" height="22.281" viewBox="0 0 22.281 22.281">
  <g id="noun-launch-1431899" transform="translate(0 0)">
    <g id="Group" transform="translate(0 0)">
      <path id="Compound_Path" data-name="Compound Path" d="M36.884,8.7a.532.532,0,0,0-.372-.372,9.125,9.125,0,0,0-8.479,2.419l-3.987,3.987-1.887-.611a3.429,3.429,0,0,0-3.509.851l-1.17,1.17a.532.532,0,0,0,0,.744l2.552,2.552L18.57,21.855a.532.532,0,0,0,.08.638l4.067,4.04a.532.532,0,0,0,.638.106L25.773,25.2H25.8l.053.053h0l2.5,2.5a.532.532,0,0,0,.744,0l1.17-1.17a3.429,3.429,0,0,0,.851-3.509L30.5,21.191,34.491,17.2C35.847,15.8,37.92,12.446,36.884,8.7ZM23.168,25.5l-3.455-3.455,1.09-1.834,4.2,4.2Zm10.552-9.09-4.226,4.226a.532.532,0,0,0-.133.532l.718,2.206a2.392,2.392,0,0,1-.585,2.419l-.8.8-2.472-2.472h0l-5.157-5.157h0l-.133-.133-.319-.319h0l-2.02-2.02.8-.8a2.392,2.392,0,0,1,2.419-.585l2.206.718a.532.532,0,0,0,.532-.133l4.253-4.2a8.127,8.127,0,0,1,7.123-2.206A8.07,8.07,0,0,1,33.721,16.406Z" transform="translate(-14.883 -8.046)" fill="#ffc81a"/>
      <path id="Path" d="M12.849,74.806,9.713,77.943a.532.532,0,1,0,.744.744l3.136-3.136a.532.532,0,0,0-.744-.744Z" transform="translate(-9.135 -56.983)" fill="#ffc81a"/>
      <path id="Path-2" data-name="Path" d="M22.98,84.545a.532.532,0,0,0,.744,0l1.595-1.595a.532.532,0,0,0-.744-.744L22.98,83.8A.532.532,0,0,0,22.98,84.545Z" transform="translate(-18.921 -62.416)" fill="#ffc81a"/>
      <path id="Path-3" data-name="Path" d="M8.652,69.711a.532.532,0,0,0,.372-.159l1.595-1.595a.532.532,0,1,0-.744-.744L8.28,68.807a.532.532,0,0,0,.372.9Z" transform="translate(-8.128 -51.33)" fill="#ffc81a"/>
      <path id="Compound_Path-2" data-name="Compound Path" d="M63.955,23.655a1.786,1.786,0,1,0,2.525,2.525h0a1.786,1.786,0,0,0-2.525-2.525Zm1.781,1.781h0a.718.718,0,1,1,.213-.505A.718.718,0,0,1,65.736,25.436Z" transform="translate(-48.733 -19.122)" fill="#ffc81a"/>
    </g>
  </g>
</svg>
