<svg xmlns="http://www.w3.org/2000/svg" width="15.984" height="20.509" viewBox="0 0 15.984 20.509">
  <path id="Path_28018" data-name="Path 28018" d="M21.934,24.13c-4.152-.035-8.1-3.633-8.082-7.56a12.4,12.4,0,0,1,1.763-6.139,1.159,1.159,0,0,1,.982-.543c.749-.033.964.815,1.5,1.138h0a9.96,9.96,0,0,1,5.8-7.317,1,1,0,0,1,1.086.182,1.019,1.019,0,0,1,.229,1.165,4.429,4.429,0,0,0,.219,3.609,6.332,6.332,0,0,0,1.41,1.888c1.125,1.079,3,3.584,2.989,6.227.13,4.115-3.9,7.437-7.9,7.352ZM21.35,22.7c2.483.524,3.968-2.581,2.394-4.392-.6-.716-1.3-1.547-1.921-2.3-.636.763-1.344,1.608-1.884,2.254A2.73,2.73,0,0,0,21.35,22.7Zm3.45-5.284a4.169,4.169,0,0,1,.606,4.4c4.349-2.544,3.519-7.361.5-10.251-1.62-1.364-2.784-4.209-2.256-6.19A8.581,8.581,0,0,0,19.4,11.594c-.409,1.558-2.122.837-2.8-.087-1.931,3.534-2.078,7.616,1.573,10.005a4.156,4.156,0,0,1,.707-4.132c.659-.788,1.939-2.314,2.41-2.888h0a.695.695,0,0,1,1.067,0c.458.558,1.738,2.084,2.442,2.925Zm-8.477-6.286.01.015ZM24.45,4.975l0,0Z" transform="translate(-13.852 -3.623)" fill="#ffc81a"/>
</svg>
