<svg xmlns="http://www.w3.org/2000/svg" width="33.786" height="25.051" viewBox="0 0 33.786 25.051">
  <path id="Path_24998" data-name="Path 24998" d="M38.492,26.6V21.727a4.034,4.034,0,0,0-3.086-3.935,3.885,3.885,0,0,0-.976-.12l-16.787,0a3.9,3.9,0,0,0-.964.117,4.039,4.039,0,0,0-3.1,3.937v2.625a.542.542,0,1,0,1.084,0v-.041a2.958,2.958,0,0,1,2.275-2.885,2.767,2.767,0,0,1,.7-.085H34.43a2.827,2.827,0,0,1,.711.086,2.956,2.956,0,0,1,2.266,2.883v2.26l-6.6,0a3.172,3.172,0,0,0-3.168,3.168v1.492A3.172,3.172,0,0,0,30.8,34.4l6.6,0v2.785a2.979,2.979,0,0,1-2.979,2.973H22.456a.542.542,0,1,0,0,1.084l11.974,0a4.065,4.065,0,0,0,4.062-4.058V34.367a2.029,2.029,0,0,0,1.7-2V28.6a2.029,2.029,0,0,0-1.7-2Zm-3.086-6.224a3.885,3.885,0,0,0-.976-.12H17.643a3.9,3.9,0,0,0-.964.117,4.026,4.026,0,0,0-2,1.165,2.959,2.959,0,0,1,2.267-2.7,2.767,2.767,0,0,1,.7-.085H34.43a2.827,2.827,0,0,1,.711.086A2.953,2.953,0,0,1,37.4,21.535,4.027,4.027,0,0,0,35.406,20.376Zm3.7,11.992a.943.943,0,0,1-.943.943h-.079a.544.544,0,0,0-.133-.017.585.585,0,0,0-.127.017H30.8a2.085,2.085,0,0,1-2.083-2.083V29.735A2.085,2.085,0,0,1,30.8,27.653h7.056a.557.557,0,0,0,.088.009.5.5,0,0,0,.083-.009h.129a.944.944,0,0,1,.943.943Zm-7.488-3.524a1.638,1.638,0,1,0,1.638,1.638A1.64,1.64,0,0,0,31.618,28.844Zm0,2.192a.552.552,0,1,1,.552-.552A.554.554,0,0,1,31.618,31.036ZM14.7,26.129a8.3,8.3,0,1,0,8.3,8.3A8.306,8.306,0,0,0,14.7,26.129Zm0,15.511a7.213,7.213,0,1,1,7.212-7.212A7.222,7.222,0,0,1,14.7,41.64Zm6.467-7.214a6.459,6.459,0,1,1-4.583-6.189.542.542,0,1,1-.315,1.038,5.378,5.378,0,1,0,3.512,3.371.543.543,0,1,1,1.025-.359,6.483,6.483,0,0,1,.362,2.139Zm-2.9-4.034a.543.543,0,0,1,.719-.813,6.6,6.6,0,0,1,.527.522.543.543,0,0,1-.808.725,5.643,5.643,0,0,0-.437-.434Zm-5.19,4.017a1.753,1.753,0,0,0,1.751,1.751,1.732,1.732,0,0,0,1.258-.533.543.543,0,1,1,.781.754,2.8,2.8,0,0,1-1.586.825v.68a.542.542,0,0,1-1.084,0l0-.714a2.834,2.834,0,0,1,0-5.526v-.678a.542.542,0,0,1,1.084,0v.645a2.807,2.807,0,0,1,1.586.825.543.543,0,1,1-.781.754,1.75,1.75,0,0,0-3.007,1.218Z" transform="translate(-6.403 -17.672)" fill="#ffc81a"/>
</svg>
